<svg xmlns="http://www.w3.org/2000/svg" width="120" height="20" viewBox="0 0 120 20">
  <defs>
    <clipPath id="full"><rect x="0" y="0" width="120" height="20" rx="3" ry="3"/></clipPath>
  </defs>
  <g clip-path="url(#full)">
    <!-- GB -->
    <g>
      <rect x="0" y="0" width="30" height="20" fill="#012169"/>
      <path d="M0,0 L30,20 M30,0 L0,20" stroke="#fff" stroke-width="3"/>
      <path d="M0,0 L30,20" stroke="#C8102E" stroke-width="1.5"/>
      <path d="M30,0 L0,20" stroke="#C8102E" stroke-width="1.5"/>
      <path d="M15,0 v20 M0,10 h30" stroke="#fff" stroke-width="5"/>
      <path d="M15,0 v20 M0,10 h30" stroke="#C8102E" stroke-width="3"/>
    </g>
    <!-- EU -->
    <g transform="translate(30,0)">
      <rect x="0" y="0" width="30" height="20" fill="#003399"/>
      <polygon points="15.0,2.8 15.3,3.6 16.1,3.6 15.5,4.2 15.7,5.0 15.0,4.5 14.3,5.0 14.5,4.2 13.9,3.6 14.7,3.6" fill="#FFCC00"/>
      <polygon points="18.0,3.6 18.3,4.4 19.1,4.4 18.5,5.0 18.7,5.8 18.0,5.3 17.3,5.8 17.5,5.0 16.9,4.4 17.7,4.4" fill="#FFCC00"/>
      <polygon points="20.2,5.8 20.5,6.6 21.3,6.6 20.7,7.2 20.9,8.0 20.2,7.5 19.5,8.0 19.7,7.2 19.1,6.6 19.9,6.6" fill="#FFCC00"/>
      <polygon points="21.0,8.8 21.3,9.6 22.1,9.6 21.5,10.2 21.7,11.0 21.0,10.5 20.3,11.0 20.5,10.2 19.9,9.6 20.7,9.6" fill="#FFCC00"/>
      <polygon points="20.2,11.8 20.5,12.6 21.3,12.6 20.7,13.2 20.9,14.0 20.2,13.5 19.5,14.0 19.7,13.2 19.1,12.6 19.9,12.6" fill="#FFCC00"/>
      <polygon points="18.0,14.0 18.3,14.8 19.1,14.8 18.5,15.4 18.7,16.2 18.0,15.7 17.3,16.2 17.5,15.4 16.9,14.8 17.7,14.8" fill="#FFCC00"/>
      <polygon points="15.0,14.8 15.3,15.6 16.1,15.6 15.5,16.2 15.7,17.0 15.0,16.5 14.3,17.0 14.5,16.2 13.9,15.6 14.7,15.6" fill="#FFCC00"/>
      <polygon points="12.0,14.0 12.3,14.8 13.1,14.8 12.5,15.4 12.7,16.2 12.0,15.7 11.3,16.2 11.5,15.4 10.9,14.8 11.7,14.8" fill="#FFCC00"/>
      <polygon points="9.8,11.8 10.1,12.6 10.9,12.6 10.3,13.2 10.5,14.0 9.8,13.5 9.1,14.0 9.3,13.2 8.7,12.6 9.5,12.6" fill="#FFCC00"/>
      <polygon points="9.0,8.8 9.3,9.6 10.1,9.6 9.5,10.2 9.7,11.0 9.0,10.5 8.3,11.0 8.5,10.2 7.9,9.6 8.7,9.6" fill="#FFCC00"/>
      <polygon points="9.8,5.8 10.1,6.6 10.9,6.6 10.3,7.2 10.5,8.0 9.8,7.5 9.1,8.0 9.3,7.2 8.7,6.6 9.5,6.6" fill="#FFCC00"/>
      <polygon points="12.0,3.6 12.3,4.4 13.1,4.4 12.5,5.0 12.7,5.8 12.0,5.3 11.3,5.8 11.5,5.0 10.9,4.4 11.7,4.4" fill="#FFCC00"/>
    </g>
    <!-- Ukraine -->
    <g>
      <rect x="60" y="0" width="30" height="10" fill="#0057B8"/>
      <rect x="60" y="10" width="30" height="10" fill="#FFD700"/>
    </g>
    <!-- Czech Republic -->
    <g>
      <rect x="90" y="0" width="30" height="10" fill="#FFFFFF"/>
      <rect x="90" y="10" width="30" height="10" fill="#D7141A"/>
      <polygon points="90,0 105,10 90,20" fill="#11457E"/>
    </g>
  </g>
</svg>
