<svg xmlns="http://www.w3.org/2000/svg" width="90" height="20" viewBox="0 0 90 20">
  <defs>
    <clipPath id="r1"><rect x="0" y="0" width="30" height="20" rx="3" ry="3"/></clipPath>
    <clipPath id="r2"><rect x="30" y="0" width="30" height="20"/></clipPath>
    <clipPath id="r3"><rect x="60" y="0" width="30" height="20" rx="3" ry="3"/></clipPath>
    <clipPath id="full"><rect x="0" y="0" width="90" height="20" rx="3" ry="3"/></clipPath>
  </defs>
  <g clip-path="url(#full)">
    <!-- GB -->
    <g>
      <rect x="0" y="0" width="30" height="20" fill="#012169"/>
      <path d="M0,0 L30,20 M30,0 L0,20" stroke="#fff" stroke-width="3"/>
      <path d="M0,0 L30,20" stroke="#C8102E" stroke-width="1.5"/>
      <path d="M30,0 L0,20" stroke="#C8102E" stroke-width="1.5"/>
      <path d="M15,0 v20 M0,10 h30" stroke="#fff" stroke-width="5"/>
      <path d="M15,0 v20 M0,10 h30" stroke="#C8102E" stroke-width="3"/>
    </g>
    <!-- EU -->
    <g>
      <rect x="30" y="0" width="30" height="20" fill="#003399"/>
      <g fill="#FFCC00" transform="translate(45,10)">
        <polygon points="0,-7 0.8,-5.5 2.4,-5.5 1.2,-4.3 1.6,-2.8 0,-3.8 -1.6,-2.8 -1.2,-4.3 -2.4,-5.5 -0.8,-5.5" transform="rotate(0)"/>
        <polygon points="0,-7 0.8,-5.5 2.4,-5.5 1.2,-4.3 1.6,-2.8 0,-3.8 -1.6,-2.8 -1.2,-4.3 -2.4,-5.5 -0.8,-5.5" transform="rotate(30)"/>
        <polygon points="0,-7 0.8,-5.5 2.4,-5.5 1.2,-4.3 1.6,-2.8 0,-3.8 -1.6,-2.8 -1.2,-4.3 -2.4,-5.5 -0.8,-5.5" transform="rotate(60)"/>
        <polygon points="0,-7 0.8,-5.5 2.4,-5.5 1.2,-4.3 1.6,-2.8 0,-3.8 -1.6,-2.8 -1.2,-4.3 -2.4,-5.5 -0.8,-5.5" transform="rotate(90)"/>
        <polygon points="0,-7 0.8,-5.5 2.4,-5.5 1.2,-4.3 1.6,-2.8 0,-3.8 -1.6,-2.8 -1.2,-4.3 -2.4,-5.5 -0.8,-5.5" transform="rotate(120)"/>
        <polygon points="0,-7 0.8,-5.5 2.4,-5.5 1.2,-4.3 1.6,-2.8 0,-3.8 -1.6,-2.8 -1.2,-4.3 -2.4,-5.5 -0.8,-5.5" transform="rotate(150)"/>
        <polygon points="0,-7 0.8,-5.5 2.4,-5.5 1.2,-4.3 1.6,-2.8 0,-3.8 -1.6,-2.8 -1.2,-4.3 -2.4,-5.5 -0.8,-5.5" transform="rotate(180)"/>
        <polygon points="0,-7 0.8,-5.5 2.4,-5.5 1.2,-4.3 1.6,-2.8 0,-3.8 -1.6,-2.8 -1.2,-4.3 -2.4,-5.5 -0.8,-5.5" transform="rotate(210)"/>
        <polygon points="0,-7 0.8,-5.5 2.4,-5.5 1.2,-4.3 1.6,-2.8 0,-3.8 -1.6,-2.8 -1.2,-4.3 -2.4,-5.5 -0.8,-5.5" transform="rotate(240)"/>
        <polygon points="0,-7 0.8,-5.5 2.4,-5.5 1.2,-4.3 1.6,-2.8 0,-3.8 -1.6,-2.8 -1.2,-4.3 -2.4,-5.5 -0.8,-5.5" transform="rotate(270)"/>
        <polygon points="0,-7 0.8,-5.5 2.4,-5.5 1.2,-4.3 1.6,-2.8 0,-3.8 -1.6,-2.8 -1.2,-4.3 -2.4,-5.5 -0.8,-5.5" transform="rotate(300)"/>
        <polygon points="0,-7 0.8,-5.5 2.4,-5.5 1.2,-4.3 1.6,-2.8 0,-3.8 -1.6,-2.8 -1.2,-4.3 -2.4,-5.5 -0.8,-5.5" transform="rotate(330)"/>
      </g>
    </g>
    <!-- Ukraine -->
    <g>
      <rect x="60" y="0" width="30" height="10" fill="#0057B8"/>
      <rect x="60" y="10" width="30" height="10" fill="#FFD700"/>
    </g>
  </g>
</svg>
