<svg xmlns="http://www.w3.org/2000/svg" width="90" height="20" viewBox="0 0 90 20">
  <defs>
    <clipPath id="full"><rect x="0" y="0" width="90" height="20" rx="3" ry="3"/></clipPath>
  </defs>
  <g clip-path="url(#full)">
    <!-- GB -->
    <g>
      <rect x="0" y="0" width="30" height="20" fill="#012169"/>
      <path d="M0,0 L30,20 M30,0 L0,20" stroke="#fff" stroke-width="3"/>
      <path d="M0,0 L30,20" stroke="#C8102E" stroke-width="1.5"/>
      <path d="M30,0 L0,20" stroke="#C8102E" stroke-width="1.5"/>
      <path d="M15,0 v20 M0,10 h30" stroke="#fff" stroke-width="5"/>
      <path d="M15,0 v20 M0,10 h30" stroke="#C8102E" stroke-width="3"/>
    </g>
    <!-- EU -->
    <g transform="translate(30,0)">
      <rect x="0" y="0" width="30" height="20" fill="#003399"/>
      <polygon points="15.0,1.6 15.3,2.6 16.3,2.6 15.5,3.2 15.8,4.1 15.0,3.5 14.2,4.1 14.5,3.2 13.7,2.6 14.7,2.6" fill="#FFCC00"/>
      <polygon points="18.5,2.5 18.8,3.5 19.8,3.5 19.0,4.1 19.3,5.0 18.5,4.5 17.7,5.0 18.0,4.1 17.2,3.5 18.2,3.5" fill="#FFCC00"/>
      <polygon points="21.1,5.1 21.4,6.1 22.4,6.1 21.6,6.7 21.9,7.6 21.1,7.0 20.3,7.6 20.6,6.7 19.8,6.1 20.8,6.1" fill="#FFCC00"/>
      <polygon points="22.0,8.6 22.3,9.6 23.3,9.6 22.5,10.2 22.8,11.1 22.0,10.6 21.2,11.1 21.5,10.2 20.7,9.6 21.7,9.6" fill="#FFCC00"/>
      <polygon points="21.1,12.1 21.4,13.1 22.4,13.1 21.6,13.7 21.9,14.6 21.1,14.1 20.3,14.6 20.6,13.7 19.8,13.1 20.8,13.1" fill="#FFCC00"/>
      <polygon points="18.5,14.7 18.8,15.7 19.8,15.7 19.0,16.3 19.3,17.2 18.5,16.7 17.7,17.2 18.0,16.3 17.2,15.7 18.2,15.7" fill="#FFCC00"/>
      <polygon points="15.0,15.6 15.3,16.6 16.3,16.6 15.5,17.2 15.8,18.1 15.0,17.6 14.2,18.1 14.5,17.2 13.7,16.6 14.7,16.6" fill="#FFCC00"/>
      <polygon points="11.5,14.7 11.8,15.7 12.8,15.7 12.0,16.3 12.3,17.2 11.5,16.7 10.7,17.2 11.0,16.3 10.2,15.7 11.2,15.7" fill="#FFCC00"/>
      <polygon points="8.9,12.1 9.2,13.1 10.2,13.1 9.4,13.7 9.7,14.6 8.9,14.1 8.1,14.6 8.4,13.7 7.6,13.1 8.6,13.1" fill="#FFCC00"/>
      <polygon points="8.0,8.6 8.3,9.6 9.3,9.6 8.5,10.2 8.8,11.1 8.0,10.6 7.2,11.1 7.5,10.2 6.7,9.6 7.7,9.6" fill="#FFCC00"/>
      <polygon points="8.9,5.1 9.2,6.1 10.2,6.1 9.4,6.7 9.7,7.6 8.9,7.0 8.1,7.6 8.4,6.7 7.6,6.1 8.6,6.1" fill="#FFCC00"/>
      <polygon points="11.5,2.5 11.8,3.5 12.8,3.5 12.0,4.1 12.3,5.0 11.5,4.5 10.7,5.0 11.0,4.1 10.2,3.5 11.2,3.5" fill="#FFCC00"/>
    </g>
    <!-- Ukraine -->
    <g>
      <rect x="60" y="0" width="30" height="10" fill="#0057B8"/>
      <rect x="60" y="10" width="30" height="10" fill="#FFD700"/>
    </g>
  </g>
</svg>
